<?xml version="1.0" encoding="utf-8"?>
<!-- Generator: Adobe Illustrator 16.0.0, SVG Export Plug-In . SVG Version: 6.00 Build 0)  -->
<!DOCTYPE svg PUBLIC "-//W3C//DTD SVG 1.1//EN" "http://www.w3.org/Graphics/SVG/1.1/DTD/svg11.dtd">
<svg version="1.1" id="Layer_1" xmlns="http://www.w3.org/2000/svg" xmlns:xlink="http://www.w3.org/1999/xlink" x="0px" y="0px"
	 width="275px" height="20px" viewBox="0 0 275 20" enable-background="new 0 0 275 20" xml:space="preserve">
<g>
	<path fill="#D9531E" d="M97.26,7.242c2.12,0.419,4.124,0.814,6.292,1.244c0.024-0.175-0.018,0.12-0.06,0.417
		c2.145-0.147,4.278-0.294,6.338-0.437c0.095-0.597,0.17-1.069,0.321-2.023c0.995,0.785,1.598,1.261,2.232,1.76
		c0.666-0.36,1.364-0.736,2.326-1.253c-0.117,0.661-0.177,1.002-0.236,1.344c0.639,0.039,1.278,0.123,1.915,0.106
		c1.377-0.033,3.288-0.571,4.024-0.092c1.847,1.201,2.414,0.408,3.081-0.695c2.169,1.617,3.757,1.612,4.423,0.407
		c1.615,0.235,3.113,0.452,4.479,0.65c0.271-0.665,0.489-1.196,0.67-1.636c0.684,0.63,1.093,1.384,1.624,1.432
		c1.979,0.171,3.998,0.133,6.003,0.134c2.021-0.001,4.057,0.05,6.058-0.12c0.944-0.08,1.822-0.623,2.703-0.945
		c1.737,1.613,5.979,1.846,6.862,0.981c2.66,0.112,4.861,0.206,7.379,0.312c-0.023-0.097,0.062,0.26,0.164,0.686
		c0.684-0.219,1.278-0.596,1.688-0.508c1.447,0.31,2.847,1.23,4.167-0.22c0.102-0.111,0.77,0.001,1.137,0.092
		c1.159,0.279,2.277,0.806,3.447,0.86c2.904,0.137,5.832,0.148,8.745,0.054c3.293-0.104,6.577-0.382,9.867-0.575
		c0.249-0.013,0.517,0.053,0.766,0.111c1.216,0.27,3.042,1.063,3.53,0.737c1.82-1.206,3.252,0.012,3.852,0.501
		c1.906,1.553,2.335-0.063,3.294-0.599c0.047,0.192,0.093,0.385,0.142,0.576c1.197-0.25,2.394-0.5,2.881-0.602
		c1.061,0.358,1.591,0.659,2.16,0.706c1.413,0.113,2.975-0.951,4.245,0.586c0.421,0.512,2.101,0.443,3.537,0.7
		c0.14-0.091,0.632-0.418,1.113-0.734c0.739,0.489,1.365,0.902,1.414,0.935c2.626-0.033,4.649-0.021,6.669-0.097
		c1.915-0.071,4.05-0.807,4.975,1.126c1.168-0.258,2.264-0.793,3.104-0.629c2.958,0.575,5.398,0.022,7.79-1.346
		c-0.514,0.604-1.029,1.207-1.545,1.811c0.122,0.137,0.244,0.272,0.363,0.409c1.328-0.546,2.654-1.093,4.154-1.711
		c-0.199,0.474-0.324,0.772-0.449,1.079c5.692,0.973,11.344,2.062,17.269,1.354c-0.021,0.325-0.043,0.648-0.034,0.506
		c3.987,0.225,7.771,0.439,11.554,0.652c0.103-0.147,0.203-0.295,0.307-0.442c-1.653-0.888-3.166-2.019-5-2.585
		c-1.425-0.44-3.249-0.177-5.067-0.232c-0.082-0.119-0.483-0.711-0.677-0.998c-1.613,0.352-2.792,0.609-4.219,0.92
		c-0.548-0.371-1.195-1.092-2.089-1.346c-1.132-0.322-2.481-0.406-3.703-0.314c-0.698,0.054-1.324,0.663-1.981,1.023
		c-0.405-0.63-0.808-1.261-1.203-1.876c-1.996,0.223-4.046,0.612-6.101,0.633c-1.943,0.021-4.131,0.002-5.771-0.626
		c-2.026-0.776-2.601-0.19-3.222,0.972c-1.293-1.237-3.848-1.654-4.62-1.087c-0.888-0.318-1.579-0.729-2.327-0.792
		c-0.975-0.079-1.993,0.12-2.99,0.198c-0.008-0.126-0.014-0.254-0.02-0.38c-0.564,0.347-1.131,0.696-1.785,1.099
		c-0.51-0.575-0.875-0.987-1.02-1.149c-1.235,0.098-2.203,0.302-3.112,0.211c-0.951-0.095-1.823-0.612-2.774-0.704
		c-2.357-0.229-4.748-0.289-7.115-0.484c-1.186-0.095-2.678-0.765-3.456-0.43c-1.986,0.854-3.024-0.087-4.093-0.665
		c-1.761,1.226-3.432,2.392-5.107,3.558c-0.194-0.065-0.388-0.13-0.582-0.195c0.252-0.677,0.502-1.352,0.667-1.798
		c-0.922-0.502-1.851-1.011-2.95-1.612c0.005,0.408,0.01,0.712,0.016,1.154c-2.031-0.511-3.926-1.158-5.92-1.436
		c-1.586-0.221-3.296-0.035-4.943,0.059c-0.885,0.05-1.754,0.284-3.043,0.505c0.124,0.167-0.088-0.118-0.295-0.396
		c-0.595,0.351-1.156,0.683-2.029,1.196c-0.008-0.692-0.013-1.049-0.02-1.552c-1.199,0.776-2.209,1.628-3.357,0.198
		c-0.095-0.118-1.096,0.271-1.646,0.23c-0.907-0.065-1.82-0.232-2.673-0.469c-0.488-0.134-0.872-0.721-1.285-0.711
		c-1.893,0.056-4.285-0.228-5.542,0.51c-1.759,1.03-2.146-0.095-3.06-0.281c-1.491,0.378-3.01,0.772-4.509,0.744
		c-2.642-0.045-5.265-0.4-7.907-0.527c-2.498-0.123-5.02-0.044-7.516-0.189c-2.433-0.144-4.84-0.505-7.273-0.653
		c-0.396-0.025-0.863,0.553-1.358,0.895c-0.193-0.425-0.373-0.823-0.311-0.69c-1.563-0.16-2.67-0.275-3.779-0.386
		c-0.42-0.042-0.913-0.192-1.254-0.085c-1.534,0.481-3.024,1.037-4.729,1.636c-0.897-3.324-4.512,0.287-6.336-1.938
		c0.014,1.092,0.021,1.62,0.028,2.146c-1.062-0.343-1.473-0.981-2.13-1.417c-1.152-0.765-2.105-0.592-2.716,0.712
		c0.686-0.058,1.168-0.097,1.649-0.137c-0.522,0.473-1.339,0.788-1.686,0.607c-2.654-1.383-5.542,0.191-8.25-0.393
		c-0.997-0.213-2.112-0.129-3.407-0.195c-1.105-0.081-2.415-0.177-4.142-0.303c-0.425,0.506-1.213,1.446-2.055,2.45
		c-2.128-1.894-8.045-2.528-10.6-1.236c-0.625-0.548-1.239-1.091-1.636-1.44c-0.917,0.319-1.612,0.765-2.25,0.728
		c-0.683-0.04-1.314-0.533-2.334-0.992c-2.316,0.526-5.022,2.512-8.521,0.742C66.477,5.87,66.17,6.342,65.8,6.911
		c-1.538-1.27-3.065-1.867-5.021-0.035c0.164-0.705,0.229-0.988,0.376-1.622c-1.892,0.309-3.568,0.581-5.269,0.857
		c0.003,0.263,0.007,0.533,0.006,0.462c-2.332-0.306-4.639-0.833-6.956-0.846c-1.957-0.01-3.922,0.579-5.974,0.918
		c0.699,0.336,1.466,0.707,2.234,1.077c-1.473-0.125-2.697-0.385-3.878-0.725c-0.712-0.205-1.355-0.537-2.029-0.812
		c-0.233,0.571-0.463,1.141-0.764,1.875C38,7.462,37.53,6.928,37.405,6.787c-2.858-0.082-5.785-0.466-6.139,2.645
		c-0.318-1.143-0.512-1.841-0.632-2.28C25.97,7.214,21.72,7.268,17.331,7.326c0.476,0.407,0.943,0.805,1.09,0.932
		c-1.196,0.015-2.6,0.281-3.745-0.009c-1.737-0.438-4.258,1.563-5.393-1.284c0.1,3.132-3.161,1.105-4.731,2.362
		c0.304,0.518,0.469,1.511,1.161,1.787c0.749,0.302,1.988-0.063,3.113-0.144c-0.5,0.343-0.911,0.623-1.321,0.902
		c0.077,0.114,0.151,0.229,0.226,0.343c2.985-0.454,5.971-0.907,8.955-1.36c0.879,0.073,1.867,0.063,2.801-0.111
		c0.397-0.074,0.678-0.494,1.007-0.751c2.688,1.287,5.695,1.518,8.898,0.626c0.493-0.136,1.057-0.132,1.59-0.186
		c2.572-0.259,5.076-1.355,7.759-0.411c0.083,0.03,0.279-0.177,0.433-0.187c3.123-0.219,6.464-1.009,9.302-0.445
		c2.183,0.435,1.604-0.431,2.038-0.962c3.897,0.97,7.949,0.824,11.983,0.743c0.077-0.185,0.246-0.594,0.627-1.517
		c0.194,0.985,0.274,1.39,0.375,1.903c1.25-0.418,2.25-1.948,3.558-0.256c0.151,0.197,1.236,0.003,1.886-0.025
		c2.534-0.112,5.068-0.23,8.157-0.374c0.249-0.136,1.078-0.598,2.448-1.358c-0.347,0.878-0.464,1.174-0.7,1.768
		c1.278-0.603,2.239-1.056,3.181-1.501c0.363,0.683,0.596,1.125,0.817,1.539c1.191-0.382,2.165-0.901,3.193-0.978
		c1.848-0.135,3.728,0.033,5.595-0.001c0.791-0.015,1.74-0.483,2.333-0.285C95.684,8.662,96.717,8.334,97.26,7.242z"/>
	<path fill="#D9531E" d="M97.26,7.242c-0.543,1.092-1.576,1.42-3.292,0.845c-0.593-0.198-1.542,0.271-2.333,0.285
		c-1.867,0.034-3.748-0.134-5.595,0.001c-1.029,0.076-2.002,0.595-3.193,0.978c-0.221-0.414-0.454-0.855-0.817-1.539
		c-0.942,0.445-1.903,0.898-3.181,1.501c0.236-0.594,0.353-0.889,0.7-1.768c-1.37,0.76-2.2,1.222-2.448,1.358
		c-3.089,0.143-5.624,0.262-8.157,0.374c-0.65,0.029-1.735,0.223-1.886,0.025c-1.308-1.692-2.308-0.162-3.558,0.256
		c-0.101-0.514-0.181-0.918-0.375-1.903c-0.381,0.923-0.551,1.333-0.627,1.517c-4.034,0.081-8.086,0.228-11.983-0.743
		c-0.435,0.531,0.145,1.397-2.038,0.962c-2.838-0.564-6.18,0.226-9.302,0.445c-0.154,0.01-0.35,0.217-0.433,0.187
		c-2.683-0.944-5.187,0.152-7.759,0.411c-0.533,0.053-1.097,0.049-1.59,0.186c-3.203,0.892-6.209,0.66-8.898-0.626
		c-0.329,0.258-0.609,0.677-1.007,0.751c-0.935,0.175-1.922,0.185-2.801,0.111c-2.983,0.453-5.97,0.906-8.955,1.36
		c-0.075-0.114-0.149-0.229-0.226-0.343c0.41-0.279,0.821-0.56,1.321-0.902c-1.125,0.08-2.364,0.445-3.113,0.144
		c-0.691-0.276-0.856-1.269-1.161-1.787c1.571-1.257,4.832,0.77,4.731-2.362c1.135,2.847,3.656,0.846,5.393,1.284
		c1.146,0.29,2.549,0.023,3.745,0.009c-0.147-0.126-0.615-0.525-1.09-0.932c4.389-0.058,8.639-0.112,13.303-0.174
		c0.12,0.438,0.314,1.137,0.632,2.28c0.354-3.11,3.28-2.726,6.139-2.645C37.53,6.928,38,7.462,38.525,8.062
		c0.3-0.735,0.531-1.305,0.764-1.875c0.673,0.275,1.316,0.607,2.029,0.812c1.181,0.34,2.406,0.599,3.878,0.725
		c-0.768-0.371-1.535-0.741-2.234-1.077c2.052-0.339,4.018-0.928,5.974-0.918c2.317,0.013,4.624,0.54,6.956,0.846
		c0.001,0.071-0.003-0.199-0.006-0.462c1.701-0.276,3.377-0.549,5.269-0.857c-0.147,0.633-0.212,0.917-0.376,1.622
		c1.955-1.832,3.483-1.234,5.021,0.035c0.37-0.568,0.676-1.041,1.064-1.639c3.5,1.771,6.205-0.215,8.521-0.742
		c1.02,0.459,1.652,0.952,2.334,0.992c0.638,0.037,1.333-0.409,2.25-0.728c0.396,0.349,1.011,0.892,1.636,1.44
		c2.555-1.292,8.472-0.657,10.6,1.236c0.842-1.004,1.63-1.943,2.055-2.45c1.727,0.126,3.037,0.222,4.142,0.303
		c1.295,0.066,2.411-0.019,3.407,0.195c2.708,0.584,5.595-0.99,8.25,0.393c0.346,0.18,1.163-0.134,1.686-0.607
		c-0.481,0.04-0.964,0.079-1.649,0.137c0.611-1.305,1.564-1.477,2.716-0.712c0.657,0.436,1.068,1.075,2.13,1.417
		c-0.007-0.527-0.014-1.055-0.028-2.146c1.824,2.225,5.439-1.386,6.336,1.938c1.704-0.599,3.194-1.155,4.729-1.636
		c0.341-0.106,0.834,0.043,1.254,0.085c1.109,0.11,2.216,0.226,3.779,0.386c-0.062-0.133,0.118,0.265,0.311,0.69
		c0.495-0.342,0.962-0.92,1.358-0.895c2.433,0.148,4.841,0.509,7.273,0.653c2.496,0.146,5.018,0.067,7.516,0.189
		c2.643,0.127,5.266,0.482,7.907,0.527c1.499,0.028,3.018-0.366,4.509-0.744c0.914,0.186,1.301,1.312,3.06,0.281
		c1.257-0.738,3.649-0.455,5.542-0.51c0.413-0.01,0.797,0.577,1.285,0.711c0.853,0.236,1.766,0.404,2.673,0.469
		c0.55,0.042,1.551-0.348,1.646-0.23c1.148,1.431,2.158,0.579,3.357-0.198c0.007,0.503,0.012,0.86,0.02,1.552
		c0.873-0.513,1.435-0.845,2.029-1.196c0.207,0.278,0.419,0.562,0.295,0.396c1.289-0.221,2.158-0.455,3.043-0.505
		c1.647-0.094,3.357-0.28,4.943-0.059c1.994,0.278,3.889,0.925,5.92,1.436c-0.006-0.441-0.011-0.746-0.016-1.154
		c1.1,0.601,2.028,1.109,2.95,1.612c-0.165,0.446-0.415,1.121-0.667,1.798c0.194,0.065,0.388,0.13,0.582,0.195
		c1.676-1.166,3.347-2.332,5.107-3.558c1.068,0.578,2.106,1.519,4.093,0.665c0.778-0.334,2.271,0.335,3.456,0.43
		c2.367,0.195,4.758,0.255,7.115,0.484c0.951,0.092,1.823,0.608,2.774,0.704c0.909,0.09,1.877-0.114,3.112-0.211
		c0.145,0.163,0.51,0.574,1.02,1.149c0.654-0.403,1.221-0.752,1.785-1.099c0.006,0.126,0.012,0.254,0.02,0.38
		c0.997-0.078,2.016-0.277,2.99-0.198c0.748,0.062,1.439,0.474,2.327,0.792c0.772-0.567,3.327-0.15,4.619,1.083
		c0.622-1.159,1.196-1.745,3.223-0.969c1.64,0.628,3.827,0.647,5.771,0.626c2.055-0.021,4.104-0.41,6.101-0.633
		c0.396,0.615,0.798,1.246,1.203,1.876c0.657-0.36,1.283-0.969,1.981-1.023c1.222-0.092,2.571-0.008,3.703,0.314
		c0.894,0.254,1.541,0.975,2.089,1.346c1.427-0.311,2.605-0.568,4.219-0.92c0.193,0.287,0.595,0.879,0.677,0.998
		c1.818,0.056,3.643-0.208,5.067,0.232c1.834,0.566,3.347,1.697,5,2.585c-0.104,0.147-0.204,0.295-0.307,0.442
		c-3.783-0.213-7.566-0.428-11.554-0.652c-0.009,0.143,0.014-0.181,0.033-0.505c-5.924,0.707-11.575-0.382-17.268-1.354
		c0.125-0.307,0.25-0.605,0.449-1.079c-1.5,0.618-2.826,1.165-4.154,1.711c-0.119-0.137-0.241-0.272-0.363-0.409
		c0.516-0.604,1.031-1.207,1.545-1.811c-2.392,1.368-4.832,1.921-7.79,1.346c-0.841-0.164-1.937,0.371-3.104,0.629
		c-0.925-1.933-3.06-1.197-4.975-1.126c-2.02,0.076-4.043,0.063-6.669,0.097c-0.049-0.032-0.675-0.445-1.414-0.935
		c-0.481,0.316-0.974,0.644-1.113,0.734c-1.437-0.257-3.116-0.188-3.537-0.7c-1.271-1.537-2.832-0.473-4.245-0.586
		c-0.569-0.047-1.1-0.348-2.16-0.706c-0.487,0.102-1.684,0.352-2.881,0.602c-0.049-0.191-0.095-0.384-0.142-0.576
		c-0.959,0.535-1.388,2.151-3.294,0.599c-0.6-0.489-2.031-1.708-3.852-0.501c-0.488,0.326-2.314-0.467-3.53-0.737
		c-0.249-0.058-0.517-0.124-0.766-0.111c-3.29,0.192-6.574,0.47-9.867,0.575c-2.913,0.094-5.841,0.083-8.745-0.054
		c-1.17-0.055-2.288-0.581-3.447-0.86c-0.367-0.091-1.035-0.203-1.137-0.092c-1.32,1.45-2.72,0.53-4.167,0.22
		c-0.41-0.087-1.005,0.289-1.688,0.508c-0.102-0.426-0.188-0.783-0.164-0.686c-2.518-0.106-4.719-0.2-7.379-0.312
		c-0.883,0.865-5.125,0.632-6.862-0.981c-0.881,0.322-1.759,0.865-2.703,0.945c-2.001,0.17-4.036,0.119-6.058,0.12
		c-2.005,0-4.024,0.038-6.003-0.134c-0.531-0.047-0.94-0.801-1.624-1.432c-0.181,0.44-0.398,0.972-0.67,1.636
		c-1.367-0.198-2.864-0.415-4.479-0.65c-0.666,1.206-2.254,1.21-4.423-0.407c-0.667,1.103-1.234,1.896-3.081,0.695
		c-0.736-0.479-2.646,0.06-4.024,0.092c-0.636,0.017-1.275-0.067-1.915-0.106c0.059-0.342,0.119-0.683,0.236-1.344
		c-0.962,0.517-1.66,0.893-2.326,1.253c-0.634-0.5-1.237-0.975-2.232-1.76c-0.151,0.954-0.227,1.426-0.321,2.023
		c-2.06,0.143-4.193,0.29-6.338,0.437c0.042-0.296,0.083-0.591,0.06-0.417C101.384,8.056,99.38,7.661,97.26,7.242z"/>
</g>
</svg>
